<?xml version="1.0" encoding="UTF-8" standalone="no"?>
<!-- Created with Inkscape (http://www.inkscape.org/) -->

<svg
   xmlns:dc="http://purl.org/dc/elements/1.1/"
   xmlns:cc="http://creativecommons.org/ns#"
   xmlns:rdf="http://www.w3.org/1999/02/22-rdf-syntax-ns#"
   xmlns:svg="http://www.w3.org/2000/svg"
   xmlns="http://www.w3.org/2000/svg"
   xmlns:sodipodi="http://sodipodi.sourceforge.net/DTD/sodipodi-0.dtd"
   xmlns:inkscape="http://www.inkscape.org/namespaces/inkscape"
   version="1.1"
   id="svg2"
   xml:space="preserve"
   width="700"
   height="700"
   viewBox="0 0 700 700.00003"
   sodipodi:docname="coritiba-logo.svg"
   inkscape:export-filename="G:\Users\suitedoalex\sites\coritiba-logo-0.png"
   inkscape:export-xdpi="561.73999"
   inkscape:export-ydpi="561.73999"
   inkscape:version="0.92.4 (5da689c313, 2019-01-14)"><metadata
     id="metadata8"><rdf:RDF><cc:Work
         rdf:about=""><dc:format>image/svg+xml</dc:format><dc:type
           rdf:resource="http://purl.org/dc/dcmitype/StillImage" /><dc:title></dc:title></cc:Work></rdf:RDF></metadata><defs
     id="defs6" /><sodipodi:namedview
     pagecolor="#ffffff"
     bordercolor="#666666"
     borderopacity="1"
     objecttolerance="10"
     gridtolerance="10"
     guidetolerance="10"
     inkscape:pageopacity="0"
     inkscape:pageshadow="2"
     inkscape:window-width="1600"
     inkscape:window-height="837"
     id="namedview4"
     showgrid="false"
     inkscape:zoom="0.59465222"
     inkscape:cx="600.7832"
     inkscape:cy="412.42764"
     inkscape:window-x="-8"
     inkscape:window-y="-8"
     inkscape:window-maximized="1"
     inkscape:current-layer="g10" /><g
     id="g10"
     inkscape:groupmode="layer"
     inkscape:label="coritiba-logo"
     transform="matrix(1.3333333,0,0,-1.3333333,0,700.00005)"><path
       d="m 262.50133,105.06766 c 87.08131,0 157.67651,70.48672 157.67651,157.43398 0,86.94462 -70.5952,157.43078 -157.67651,157.43078 -87.08382,0 -157.67916,-70.48616 -157.67916,-157.43078 0,-86.94726 70.59534,-157.43398 157.67916,-157.43398 z"
       style="fill:#13483c;fill-opacity:1;fill-rule:evenodd;stroke:none;stroke-width:1.38912249"
       id="path16"
       inkscape:connector-curvature="0" /><path
       d="m 262.50216,111.46207 c 83.43014,0 151.06444,67.62443 151.06444,151.04039 0,83.41404 -67.6343,151.03597 -151.06444,151.03597 -83.43139,0 -151.06832,-67.62193 -151.06832,-151.03597 0,-83.41596 67.63693,-151.04039 151.06832,-151.04039 z"
       style="fill:#ffffff;fill-opacity:1;fill-rule:evenodd;stroke:none;stroke-width:1.38912249"
       id="path18"
       inkscape:connector-curvature="0" /><path
       d="m 262.50105,117.45752 c 80.11819,0 145.06967,64.93814 145.06967,145.04301 0,80.10318 -64.95148,145.04203 -145.06967,145.04203 -80.11945,0 -145.07177,-64.93885 -145.07177,-145.04203 0,-80.10487 64.95232,-145.04301 145.07177,-145.04301 z"
       style="fill:#13483c;fill-opacity:1;fill-rule:evenodd;stroke:none;stroke-width:1.38912249"
       id="path20"
       inkscape:connector-curvature="0" /><path
       d="m 262.50021,155.68562 c 59.00201,0 106.83575,47.82151 106.83575,106.81491 0,58.98977 -47.83374,106.81434 -106.83575,106.81434 -59.00478,0 -106.83532,-47.82457 -106.83532,-106.81434 0,-58.9934 47.83054,-106.81491 106.83532,-106.81491 z"
       style="fill:#ffffff;fill-opacity:1;fill-rule:evenodd;stroke:none;stroke-width:1.38912249"
       id="path22"
       inkscape:connector-curvature="0" /><path
       d="m 262.4998,161.02471 c 56.05192,0 101.49387,45.43291 101.49387,101.47582 0,56.04081 -45.44195,101.47567 -101.49387,101.47567 -56.05234,0 -101.49346,-45.43486 -101.49346,-101.47567 0,-56.04291 45.44112,-101.47582 101.49346,-101.47582 z"
       style="fill:#13483c;fill-opacity:1;fill-rule:evenodd;stroke:none;stroke-width:1.38912249"
       id="path24"
       inkscape:connector-curvature="0" /><path
       d="m 328.98153,269.80287 c -0.10839,9.71233 -3.80661,15.06086 -10.41161,15.06086 -7.38875,0 -11.13659,-7.747 -11.13659,-23.02637 0,-6.96965 0.55092,-14.64691 4.63938,-18.73385 1.84129,-1.84086 4.24405,-2.77533 7.14135,-2.77533 5.75569,0 9.76539,4.94737 10.72778,13.23571 v 0 0 l 10.2588,-0.70874 v 0 0 c -1.30411,-14.16543 -9.38977,-22.62033 -21.63072,-22.62033 -5.67346,0 -10.50177,1.95185 -14.35213,5.79973 -5.64498,5.64428 -8.88372,15.29034 -8.88372,26.46666 0,11.0991 3.23249,20.69571 8.86524,26.32929 3.94288,3.93997 8.9122,5.93601 14.77332,5.93601 12.60573,0 19.7479,-8.08678 21.22801,-24.0403 v 0 0 z"
       style="fill:#ffffff;fill-opacity:1;fill-rule:evenodd;stroke:none;stroke-width:1.38912249"
       id="path26"
       inkscape:connector-curvature="0" /><path
       d="m 259.7328,276.94615 v -9.61732 h 13.67911 v -7.95258 H 259.7328 V 242.8543 h -8.38488 v 42.29322 h 25.57403 v -8.20137 z"
       style="fill:#ffffff;fill-opacity:1;fill-rule:evenodd;stroke:none;stroke-width:1.38912249"
       id="path28"
       inkscape:connector-curvature="0" /><path
       d="m 218.44712,269.80287 c -0.10794,9.71233 -3.80496,15.06086 -10.40995,15.06086 -7.39222,0 -11.13938,-7.747 -11.13938,-23.02637 0,-6.96965 0.55245,-14.64691 4.64064,-18.73385 1.8435,-1.84086 4.24364,-2.77533 7.14176,-2.77533 5.75444,0 9.76498,4.94737 10.72612,13.23571 v 0 0 l 10.26046,-0.70874 v 0 0 c -1.30425,-14.16543 -9.39143,-22.62033 -21.6296,-22.62033 -5.67499,0 -10.50455,1.95185 -14.35284,5.79973 -5.64511,5.64428 -8.88426,15.29034 -8.88426,26.46666 0,11.0991 3.23332,20.69571 8.86732,26.32929 3.93927,3.93997 8.90969,5.93601 14.77095,5.93601 12.60643,0 19.74861,-8.08678 21.22843,-24.0403 v 0 0 z"
       style="fill:#ffffff;fill-opacity:1;fill-rule:evenodd;stroke:none;stroke-width:1.38912249"
       id="path30"
       inkscape:connector-curvature="0" /><path
       d="m 142.44697,240.13217 c 5.06975,0.1374 9.27628,-1.72986 10.73486,-7.02451 1.98937,-7.22982 -4.17279,-12.10745 -10.34465,-13.80579 -6.46443,-1.77752 -13.50936,-0.29769 -15.50928,6.96645 -1.38773,5.03904 1.19353,8.93234 5.51468,11.2212 v 0 l 1.36286,-2.80867 v 0 c -2.93674,-1.74877 -5.24379,-4.07319 -4.21932,-7.79743 1.49762,-5.44188 7.81673,-5.27491 12.16191,-4.07902 1.97242,0.54301 4.32948,1.54471 5.92503,2.88757 1.94491,1.6357 3.20331,4.06319 2.47875,6.69043 -1.05449,3.83565 -4.43298,4.83193 -7.94107,4.72914 v 0 z m -5.49467,4.11597 c -6.46442,-0.3913 -13.72593,2.35513 -14.1792,9.83875 -0.44216,7.2965 6.00546,11.06172 12.39389,11.44956 6.35218,0.38465 13.84442,-2.42374 14.29214,-9.79539 0.45132,-7.44459 -6.0038,-11.09826 -12.50683,-11.49292 z m -1.38912,17.89871 c -2.30595,-0.14058 -4.96626,-0.67969 -6.97646,-1.97867 -1.96963,-1.29548 -3.28472,-3.38723 -3.13678,-5.80527 0.34895,-5.78098 6.68308,-6.99216 11.33386,-6.70988 4.46019,0.2706 10.3616,2.4493 10.03002,7.92981 -0.33784,5.55717 -6.79017,6.83378 -11.25064,6.56401 z m 15.44467,23.69413 -11.82559,-3.13636 -1.03754,-7.11967 11.13284,-1.62305 -0.47132,-3.22152 -25.71058,3.74674 1.40302,9.63037 v 0 c 0.3063,2.09952 0.86472,4.08499 2.42679,5.61636 1.56485,1.53332 3.84898,2.23413 6.02073,1.91686 3.03788,-0.44147 5.51065,-2.64142 5.89863,-5.75848 v 0 l 12.65478,3.32098 z m -14.60801,-3.84037 c 0.25129,1.72431 0.34854,3.16469 -0.77721,4.62869 -0.76985,1.03129 -1.94728,1.62319 -3.18249,1.80267 -1.49941,0.21976 -2.82019,-0.16225 -3.82383,-1.27855 -0.95099,-1.0092 -1.14714,-2.09174 -1.34315,-3.43919 v 0 l -0.93446,-6.40858 9.18183,-1.33717 z m 16.70795,11.70197 -24.89947,7.42402 0.93239,3.12302 24.89835,-7.4261 z m 4.7433,13.47504 -21.16411,9.36144 -2.98828,-6.75351 -2.59808,1.14937 7.29414,16.48471 2.59558,-1.14935 -2.9862,-6.75433 21.16411,-9.36019 z m 6.39246,12.73964 -22.2486,13.41642 1.68167,2.78978 22.25027,-13.41642 z m 4.84442,8.15207 -20.08476,16.47611 6.22188,7.58155 v 0 c 1.27299,1.55136 2.34011,2.73434 4.32392,3.35917 2.01215,0.60135 4.04277,0.21073 5.68249,-1.13366 2.28343,-1.87392 2.87603,-4.61494 1.60137,-7.2422 v 0 l 0.0587,-0.0479 v 0 c 2.56849,2.05507 5.92933,2.09119 8.50685,-0.022 1.69834,-1.39357 2.71003,-3.20486 2.6592,-5.41314 -0.0505,-2.50751 -1.25813,-4.16015 -2.76978,-6.00574 v 0 z m 3.96457,9.18904 c 0.91348,1.112 1.80419,2.43653 1.82197,3.89121 0.0542,1.37884 -0.57732,2.5803 -1.65973,3.46976 -1.20104,0.98336 -2.83367,1.4412 -4.33392,1.10532 -1.55332,-0.34103 -2.5878,-1.59749 -3.52295,-2.74213 v 0 l -3.74828,-4.56535 7.4068,-6.07657 z m -10.1813,6.63723 c 1.03364,1.25813 2.19328,2.6103 2.24134,4.28308 0.0877,1.30091 -0.63482,2.62725 -1.6018,3.42057 -1.20103,0.9849 -2.43387,1.21285 -3.88773,0.69262 -1.2191,-0.47091 -1.96533,-1.3762 -2.78158,-2.37317 v 0 l -3.72382,-4.53701 6.55902,-5.37841 z m 32.52756,10.83849 -6.85046,4.16098 -7.40278,-6.14242 3.06037,-7.30401 -2.09882,-1.74043 -10.12254,25.3594 2.88549,2.39443 23.09249,-14.59801 z m -19.99352,12.64352 4.86652,-12.15052 6.15229,5.10238 z m 35.08188,-3.40266 -10.64317,23.69732 14.51105,6.51373 1.14908,-2.55473 -11.54125,-5.17963 3.38431,-7.53279 9.56856,4.29753 1.07102,-2.38456 -9.56966,-4.29684 5.0414,-11.22661 z m 11.91214,19.18406 c -1.5065,6.29869 -0.0606,13.92387 7.23399,15.66943 7.10829,1.70071 11.93854,-3.99789 13.4274,-10.22254 1.47984,-6.18605 0.0125,-14.05195 -7.16856,-15.77071 -7.25859,-1.73418 -11.97563,3.98998 -13.49283,10.32382 z m 17.39113,4.47117 c -0.53899,2.24649 -1.53165,4.77331 -3.15915,6.52429 -1.6168,1.71612 -3.90413,2.6485 -6.26161,2.08508 -5.6372,-1.34954 -5.73055,-7.79396 -4.64689,-12.32458 1.04114,-4.34685 4.21015,-9.77846 9.5516,-8.50101 5.41425,1.29425 5.55567,7.86979 4.51605,12.21622 z m 9.08194,1.25021 c -0.13753,6.47233 2.89174,13.61965 10.39147,13.7787 7.30595,0.15433 10.81681,-6.43733 10.95143,-12.83451 0.13543,-6.36122 -2.96662,-13.73579 -10.34898,-13.8929 -7.45986,-0.15711 -10.85613,6.43692 -10.99392,12.94871 z m 17.94149,0.68233 c -0.0502,2.30955 -0.48578,4.98903 -1.70418,7.04577 -1.21631,2.02034 -3.25208,3.41627 -5.67693,3.36543 -5.79236,-0.12321 -7.25079,-6.40344 -7.15231,-11.05922 0.0956,-4.46658 2.03923,-10.44828 7.53072,-10.33257 5.56467,0.11821 7.09646,6.5122 7.0027,10.98059 z m 12.86411,-14.51451 3.82494,22.82299 -7.28581,1.21994 0.4705,2.8013 17.78257,-2.97925 -0.46938,-2.80047 -7.2847,1.21867 -3.82383,-22.82147 z m 24.36146,-6.22008 11.32481,23.38032 8.82898,-4.27502 v 0 c 1.8074,-0.87501 3.20611,-1.63583 4.27837,-3.41795 1.05642,-1.81447 1.15213,-3.88023 0.22642,-5.78805 -1.28772,-2.65906 -3.81453,-3.87663 -6.66764,-3.25361 v 0 l -0.0335,-0.0685 v 0 c 2.60072,-2.01465 3.421,-5.27338 1.96922,-8.27306 -0.95613,-1.97671 -2.48194,-3.3864 -4.64342,-3.85147 -2.44999,-0.53982 -4.34044,0.2492 -6.48886,1.28993 v 0 z m 9.86346,-1.7046 c 1.29522,-0.62802 2.79464,-1.18477 4.2114,-0.86069 1.35301,0.27046 2.37443,1.16436 2.98717,2.42596 0.67567,1.39551 0.73902,3.0919 0.061,4.47117 -0.6954,1.43024 -2.16176,2.14092 -3.49156,2.78519 v 0 l -5.31743,2.57446 -4.17667,-8.62395 z m 4.07359,11.45082 c 1.46553,-0.7104 3.05289,-1.51998 4.69011,-1.17826 1.28368,0.21976 2.40748,1.23452 2.95132,2.35762 0.67762,1.39816 0.60997,2.65045 -0.23546,3.94428 -0.74192,1.07505 -1.79918,1.5861 -2.95883,2.14716 v 0 l -5.28157,2.5596 -3.70021,-7.63558 z m 18.13417,-29.09197 2.44722,7.62697 -7.7013,5.76625 -6.38969,-4.67759 -2.18217,1.63541 22.30654,15.75265 3.00008,-2.24732 -8.81538,-25.85352 z m 7.63434,22.38487 -10.68416,-7.56585 6.39636,-4.79165 z m 7.5571,-37.81858 -10.52024,11.16341 18.91221,17.8159 2.23385,-2.37206 -16.8181,-15.84003 8.28638,-8.79398 z m 10.45176,-15.44983 -8.56352,12.72104 21.55668,14.50438 1.81878,-2.70281 -19.16893,-12.8962 6.746,-10.02016 z m 19.68414,-28.53632 c -5.05876,-0.33464 -9.33546,1.36912 -10.99559,6.60347 -2.26775,7.14732 3.69937,12.25762 9.80164,14.19462 6.38969,2.0263 13.4881,0.81943 15.76766,-6.36289 1.57901,-4.98041 -0.85139,-8.96845 -5.0785,-11.42358 v 0 l -1.46913,2.75283 v 0 c 2.86548,1.86128 5.08043,4.27238 3.91441,7.9548 -1.70737,5.37813 -8.01552,4.96667 -12.31028,3.60339 -1.95032,-0.61774 -4.26612,-1.70849 -5.80764,-3.11275 -1.88142,-1.70932 -3.04579,-4.18293 -2.21925,-6.781 1.20089,-3.79078 4.61563,-4.65509 8.11747,-4.41811 v 0 z m -5.22185,-22.07732 -1.89365,15.21672 25.78545,3.20693 0.39978,-3.23249 -22.92593,-2.84964 1.49122,-11.98591 z m 24.95781,-22.50171 -16.41179,0.98711 v 0 c -2.57016,0.15517 -4.94347,0.44813 -6.91741,2.31345 -1.97631,1.86406 -2.61461,4.51923 -2.45541,7.16565 0.15433,2.5332 0.84417,5.1856 2.91577,6.80823 2.23107,1.76182 4.84928,1.75432 7.5332,1.59401 v 0 l 16.41096,-0.98641 -0.19726,-3.25207 -16.40789,0.98752 v 0 c -1.54943,0.0946 -3.67062,0.1824 -5.09016,-0.68081 -1.61292,-0.96474 -2.19968,-3.13038 -2.30595,-4.90707 -0.10002,-1.66375 0.31616,-3.58686 1.57472,-4.76219 1.39787,-1.33536 3.32694,-1.45107 5.10363,-1.5586 v 0 l 16.41054,-0.98711 z m -26.87897,-4.10235 25.07825,-6.79754 -2.56585,-9.46575 v 0 c -0.52647,-1.93741 -1.01503,-3.45378 -2.56848,-4.83748 -1.58846,-1.37301 -3.60144,-1.84878 -5.64734,-1.29314 -2.85173,0.77139 -4.51743,3.03038 -4.43075,5.94781 v 0 l -0.074,0.0197 v 0 c -1.49941,-2.92925 -4.55117,-4.33698 -7.76783,-3.46559 -2.12036,0.57496 -3.7873,1.81016 -4.64647,3.84954 -0.98392,2.30747 -0.55912,4.31128 0.0673,6.61403 v 0 z m 0.15197,-10.00752 c -0.37686,-1.38773 -0.64691,-2.96466 -0.0673,-4.29683 0.51745,-1.27702 1.58458,-2.1173 2.93674,-2.48347 1.49873,-0.40674 3.17693,-0.15517 4.40783,0.7686 1.27786,0.94668 1.70265,2.51862 2.09022,3.9451 v 0 l 1.54622,5.70096 -9.24961,2.50682 z m 12.0091,-1.88101 c -0.42687,-1.57123 -0.93,-3.28013 -0.28976,-4.82609 0.45355,-1.22228 1.6593,-2.1366 2.86548,-2.46458 1.49747,-0.40438 2.71574,-0.10909 3.83134,0.96322 0.91779,0.92849 1.22618,2.0609 1.56207,3.30444 v 0 l 1.53762,5.66401 -8.19068,2.22038 z m -196.61612,-86.86308 12.13233,22.97512 7.70449,-4.06763 v 0 c 1.97672,-1.04267 3.82856,-2.32081 4.71412,-4.45783 0.8357,-2.06883 0.54038,-4.65399 -0.48591,-6.5964 -0.93628,-1.77432 -2.64559,-3.22693 -4.57272,-3.7955 -2.33747,-0.69344 -4.44019,-0.0539 -6.51761,1.04268 v 0 l -5.15963,2.72172 -4.93263,-9.34255 z m 13.92832,7.63753 c 1.37384,-0.72456 2.65086,-1.22853 4.27003,-0.75567 1.28021,0.39451 2.33344,1.33799 2.95244,2.50987 0.72651,1.37466 0.9478,3.01036 0.30366,4.46533 -0.56426,1.28409 -1.48414,1.8967 -2.65711,2.51542 v 0 l -5.05724,2.67086 -4.66843,-8.84204 z m 20.41288,-22.49712 -0.0488,8.01163 -9.1118,3.08399 -4.61578,-6.43386 -2.58391,0.87418 16.29371,21.91244 3.55255,-1.20229 -0.32992,-27.31362 z m 0.28713,23.65079 -7.79783,-10.51468 7.57182,-2.56155 z m 25.38649,-28.34295 -3.24693,11.79448 -7.1319,0.97265 -1.51928,-11.1452 -3.22805,0.43952 3.50963,25.74252 9.64732,-1.31286 v 0 c 2.1016,-0.28908 4.09165,-0.82694 5.63998,-2.37484 1.54706,-1.54984 2.26843,-3.82703 1.97199,-6.00337 -0.41424,-3.03829 -2.58946,-5.53398 -5.70541,-5.94947 v 0 l 3.44114,-12.62213 z m -3.97747,14.5698 c 1.72598,-0.23435 3.16789,-0.31658 4.62438,0.82334 1.02226,0.77694 1.60431,1.95866 1.7728,3.19622 0.20435,1.50346 -0.18905,2.81701 -1.3148,3.81135 -1.01823,0.94335 -2.10188,1.12852 -3.45405,1.3116 v 0 l -6.41691,0.87571 -1.25326,-9.19488 z m 31.00605,-14.41269 -3.00134,7.42958 -9.60898,-0.49801 -1.91463,-7.68171 -2.72365,-0.14252 7.05313,26.38124 3.74397,0.19337 9.78123,-25.50832 z m -8.46434,22.08913 -3.36515,-12.65171 7.98204,0.41465 z m 34.89365,-16.74727 -18.3831,18.70787 5.56635,-21.95605 -2.64336,-0.66983 -6.3858,25.18769 3.96525,1.00295 17.13831,-17.49738 -5.20435,20.52276 2.64447,0.67178 6.3869,-25.18577 z m 17.93649,33.83958 -1.33774,1.0399 4.92569,7.34735 2.22441,-1.66528 z m 7.90757,-23.06763 -5.62414,5.70763 -8.68062,-4.1464 1.18006,-7.82853 -2.46097,-1.17658 -3.61241,27.06607 3.38361,1.61639 18.82164,-19.80222 z m -16.29482,17.14691 1.74752,-12.97217 7.21176,3.44419 z m -148.86323,22.02926 c 2.67711,0 4.8472,2.17009 4.8472,4.84651 0,2.67643 -2.17009,4.84457 -4.8472,4.84457 -2.67768,0 -4.8454,-2.16814 -4.8454,-4.84457 0,-2.67642 2.16772,-4.84651 4.8454,-4.84651 z m 194.47118,0 c 2.67809,0 4.84734,2.17009 4.84734,4.84651 0,2.67643 -2.16925,4.84457 -4.84734,4.84457 -2.67518,0 -4.84679,-2.16814 -4.84679,-4.84457 0,-2.67642 2.17161,-4.84651 4.84679,-4.84651 z"
       style="fill:#ffffff;fill-opacity:1;fill-rule:evenodd;stroke:none;stroke-width:1.38912249"
       id="path32"
       inkscape:connector-curvature="0" /><path
       d="m 241.26706,352.3116 c -17.04842,-9.98279 -34.09226,-38.82973 -35.85714,-41.75661 -1.76488,-2.92647 -17.09816,11.3708 -15.14936,14.31783 7.43265,11.24439 22.50852,22.30764 35.34526,26.94578 11.62793,4.20196 19.82111,3.38918 15.66124,0.493"
       style="fill:#ffffff;fill-opacity:1;fill-rule:evenodd;stroke:none;stroke-width:1.38912249"
       id="path34"
       inkscape:connector-curvature="0" /><path
       d="m 249.36134,346.70204 c -10.18311,-13.90316 -17.72229,-43.39438 -18.61091,-46.70938 -0.88834,-3.31555 -21.22801,4.36601 -19.92696,8.00802 1.30132,3.64185 5.97615,12.51932 13.41003,22.47072 4.45478,5.96239 13.45629,16.23857 20.52318,19.69886 3.65658,1.79017 8.09469,1.29634 4.60466,-3.46822"
       style="fill:#ffffff;fill-opacity:1;fill-rule:evenodd;stroke:none;stroke-width:1.38912249"
       id="path36"
       inkscape:connector-curvature="0" /><path
       d="m 260.50779,296.49207 c 0,-3.85064 -25.08657,-1.4783 -24.4837,2.79255 0.60288,4.27073 7.24928,34.52151 18.06096,47.85098 0.64775,0.80082 1.0549,1.30882 1.93574,1.95894 1.5943,1.17574 4.01331,0.0788 3.94914,-2.01409 0.51022,-17.57504 0.53786,-46.73773 0.53786,-50.58838"
       style="fill:#ffffff;fill-opacity:1;fill-rule:evenodd;stroke:none;stroke-width:1.38912249"
       id="path38"
       inkscape:connector-curvature="0" /><path
       d="m 241.26706,173.51459 c -17.04842,9.98237 -34.09226,38.82944 -35.85714,41.75633 -1.76488,2.92688 -17.09816,-11.37053 -15.14936,-14.31782 7.43265,-11.24398 22.50852,-22.30766 35.34526,-26.94551 11.62793,-4.20183 19.82111,-3.38904 15.66124,-0.493"
       style="fill:#ffffff;fill-opacity:1;fill-rule:evenodd;stroke:none;stroke-width:1.38912249"
       id="path40"
       inkscape:connector-curvature="0" /><path
       d="m 249.36134,179.12428 c -10.18311,13.90303 -17.72229,43.39425 -18.61091,46.70939 -0.88834,3.31555 -21.22801,-4.36615 -19.92696,-8.00802 1.30132,-3.642 5.97615,-12.51988 13.41003,-22.47072 4.45478,-5.96239 13.45629,-16.23857 20.52318,-19.69943 3.65658,-1.7896 8.09469,-1.29619 4.60466,3.46878"
       style="fill:#ffffff;fill-opacity:1;fill-rule:evenodd;stroke:none;stroke-width:1.38912249"
       id="path42"
       inkscape:connector-curvature="0" /><path
       d="m 260.50779,229.33425 c 0,3.85023 -25.08657,1.47817 -24.4837,-2.79255 0.60288,-4.27127 7.24928,-34.52164 18.06096,-47.85096 0.64775,-0.80097 1.05296,-1.30731 1.93574,-1.95909 1.59638,-1.17811 4.06444,-0.33463 3.94914,1.03768 0.51022,17.57462 0.53786,47.71427 0.53786,51.56492"
       style="fill:#ffffff;fill-opacity:1;fill-rule:evenodd;stroke:none;stroke-width:1.38912249"
       id="path44"
       inkscape:connector-curvature="0" /><path
       d="m 284.00258,173.51459 c 17.04857,9.98237 34.0924,38.82944 35.85728,41.75633 1.76488,2.92688 17.09815,-11.37053 15.14935,-14.31782 -7.43263,-11.24398 -22.50851,-22.30766 -35.34524,-26.94551 -11.62794,-4.20183 -19.82071,-3.38904 -15.66139,-0.493"
       style="fill:#ffffff;fill-opacity:1;fill-rule:evenodd;stroke:none;stroke-width:1.38912249"
       id="path46"
       inkscape:connector-curvature="0" /><path
       d="m 275.90831,179.12428 c 10.18324,13.90303 17.72228,43.39425 18.61104,46.70939 0.88875,3.31555 21.22801,-4.36615 19.92696,-8.00802 -1.30091,-3.642 -5.97572,-12.51988 -13.41003,-22.47072 -4.45478,-5.96239 -13.45588,-16.23857 -20.52317,-19.69943 -3.65618,-1.7896 -8.0947,-1.29619 -4.6048,3.46878"
       style="fill:#ffffff;fill-opacity:1;fill-rule:evenodd;stroke:none;stroke-width:1.38912249"
       id="path48"
       inkscape:connector-curvature="0" /><path
       d="m 264.76198,229.33425 c 0,3.85023 25.08659,1.47817 24.48371,-2.79255 -0.60289,-4.27127 -7.24928,-34.52164 -18.06096,-47.85096 -0.64733,-0.80097 -1.05295,-1.30731 -1.93574,-1.95909 -1.59596,-1.17811 -4.06444,-0.33463 -3.94914,1.03768 -0.51023,17.57462 -0.53787,47.71427 -0.53787,51.56492"
       style="fill:#ffffff;fill-opacity:1;fill-rule:evenodd;stroke:none;stroke-width:1.38912249"
       id="path50"
       inkscape:connector-curvature="0" /><path
       d="m 283.55931,352.3116 c 17.04814,-9.98279 34.09227,-38.82973 35.85714,-41.75661 1.76489,-2.92647 17.09774,11.3708 15.14935,14.31783 -7.43263,11.24439 -22.5085,22.30764 -35.34524,26.94578 -11.62835,4.20196 -19.82111,3.38918 -15.66125,0.493"
       style="fill:#ffffff;fill-opacity:1;fill-rule:evenodd;stroke:none;stroke-width:1.38912249"
       id="path52"
       inkscape:connector-curvature="0" /><path
       d="m 275.46504,346.70204 c 10.18281,-13.90316 17.72228,-43.39438 18.61062,-46.70938 0.88862,-3.31555 21.22787,4.36601 19.92696,8.00802 -1.30105,3.64185 -5.97586,12.51932 -13.40975,22.47072 -4.45477,5.96239 -13.45629,16.23857 -20.52317,19.69886 -3.65659,1.79017 -8.0947,1.29634 -4.60466,-3.46822"
       style="fill:#ffffff;fill-opacity:1;fill-rule:evenodd;stroke:none;stroke-width:1.38912249"
       id="path54"
       inkscape:connector-curvature="0" /><path
       d="m 264.3183,296.49207 c 0,-3.85064 25.08644,-1.4783 24.48356,2.79255 -0.60288,4.27073 -7.24886,34.52151 -18.06096,47.85098 -0.64732,0.80082 -1.05489,1.30882 -1.93574,1.95894 -1.59388,1.17574 -4.01318,0.0788 -3.949,-2.01409 -0.51036,-17.57504 -0.53786,-46.73773 -0.53786,-50.58838"
       style="fill:#ffffff;fill-opacity:1;fill-rule:evenodd;stroke:none;stroke-width:1.38912249"
       id="path56"
       inkscape:connector-curvature="0" /><path
       d="m 794.78667,106.31004 c 91.35545,0 165.41561,73.94636 165.41561,165.16117 0,91.21205 -74.06016,165.15781 -165.41561,165.15781 -91.35807,0 -165.41838,-73.94576 -165.41838,-165.15781 0,-91.21481 74.06031,-165.16117 165.41838,-165.16117 z"
       style="fill:#13483c;fill-opacity:1;fill-rule:evenodd;stroke:none;stroke-width:1.45730352"
       id="path16-5"
       inkscape:connector-curvature="0" /><path
       d="m 794.78755,113.0183 c 87.52507,0 158.47899,70.94358 158.47899,158.45378 0,87.50817 -70.95392,158.44912 -158.47899,158.44912 -87.52638,0 -158.48307,-70.94095 -158.48307,-158.44912 0,-87.5102 70.95669,-158.45378 158.48307,-158.45378 z"
       style="fill:#ffffff;fill-opacity:1;fill-rule:evenodd;stroke:none;stroke-width:1.45730352"
       id="path18-7"
       inkscape:connector-curvature="0" /><path
       d="m 794.78638,119.30802 c 84.05056,0 152.18999,68.12544 152.18999,152.16202 0,84.03482 -68.13943,152.16101 -152.18999,152.16101 -84.05188,0 -152.19219,-68.12619 -152.19219,-152.16101 0,-84.03658 68.14031,-152.16202 152.19219,-152.16202 z"
       style="fill:#13483c;fill-opacity:1;fill-rule:evenodd;stroke:none;stroke-width:1.45730352"
       id="path20-3"
       inkscape:connector-curvature="0" /><path
       d="m 794.7855,159.41243 c 61.89795,0 112.07948,50.1687 112.07948,112.05761 0,61.88512 -50.18153,112.05702 -112.07948,112.05702 -61.90086,0 -112.07902,-50.1719 -112.07902,-112.05702 0,-61.88891 50.17816,-112.05761 112.07902,-112.05761 z"
       style="fill:#ffffff;fill-opacity:1;fill-rule:evenodd;stroke:none;stroke-width:1.45730352"
       id="path22-0"
       inkscape:connector-curvature="0" /><path
       d="m 794.78507,165.01358 c 58.80307,0 106.4754,47.66285 106.4754,106.45646 0,58.79142 -47.67233,106.45632 -106.4754,106.45632 -58.80351,0 -106.47497,-47.6649 -106.47497,-106.45632 0,-58.79361 47.67146,-106.45646 106.47497,-106.45646 z"
       style="fill:#13483c;fill-opacity:1;fill-rule:evenodd;stroke:none;stroke-width:1.45730352"
       id="path24-6"
       inkscape:connector-curvature="0" /><path
       d="m 864.52987,279.1308 c -0.11372,10.18903 -3.99345,15.80008 -10.92264,15.80008 -7.7514,0 -11.6832,-8.12724 -11.6832,-24.15655 0,-7.31174 0.57796,-15.36581 4.8671,-19.65335 1.93166,-1.93121 4.45235,-2.91155 7.49185,-2.91155 6.0382,0 10.2447,5.1902 11.25432,13.88534 v 0 0 l 10.76233,-0.74352 v 0 0 c -1.36812,-14.8607 -9.85064,-23.73058 -22.6924,-23.73058 -5.95192,0 -11.01722,2.04765 -15.05656,6.08439 -5.92205,5.92131 -9.31975,16.04082 -9.31975,27.7657 0,11.64387 3.39114,21.7115 9.30036,27.62159 4.13641,4.13335 9.34963,6.22735 15.49843,6.22735 13.22444,0 20.71716,-8.48368 22.26992,-25.22024 v 0 0 z"
       style="fill:#ffffff;fill-opacity:1;fill-rule:evenodd;stroke:none;stroke-width:1.45730352"
       id="path26-8"
       inkscape:connector-curvature="0" /><path
       d="m 791.88226,286.62469 v -10.08936 h 14.35051 v -8.34291 h -14.35051 v -17.33288 h -8.79643 v 44.36906 h 26.82926 v -8.60391 z"
       style="fill:#ffffff;fill-opacity:1;fill-rule:evenodd;stroke:none;stroke-width:1.45730352"
       id="path28-0"
       inkscape:connector-curvature="0" /><path
       d="m 748.57019,279.1308 c -0.11324,10.18903 -3.99171,15.80008 -10.92089,15.80008 -7.75504,0 -11.68613,-8.12724 -11.68613,-24.15655 0,-7.31174 0.57957,-15.36581 4.86842,-19.65335 1.93398,-1.93121 4.45192,-2.91155 7.49229,-2.91155 6.03688,0 10.24426,5.1902 11.25258,13.88534 v 0 0 l 10.76407,-0.74352 v 0 0 c -1.36826,-14.8607 -9.85239,-23.73058 -22.69123,-23.73058 -5.95353,0 -11.02013,2.04765 -15.0573,6.08439 -5.9222,5.92131 -9.32033,16.04082 -9.32033,27.7657 0,11.64387 3.39202,21.7115 9.30255,27.62159 4.13262,4.13335 9.34699,6.22735 15.49594,6.22735 13.22518,0 20.71791,-8.48368 22.27037,-25.22024 v 0 0 z"
       style="fill:#ffffff;fill-opacity:1;fill-rule:evenodd;stroke:none;stroke-width:1.45730352"
       id="path30-5"
       inkscape:connector-curvature="0" /><path
       d="m 668.83979,248.00381 c 5.31858,0.14413 9.73159,-1.81478 11.26175,-7.36929 2.08701,-7.58468 -4.37759,-12.70172 -10.85239,-14.48341 -6.78171,-1.86477 -14.17242,-0.3123 -16.2705,7.30837 -1.45584,5.28637 1.25211,9.37076 5.78535,11.77196 v 0 l 1.42975,-2.94652 v 0 c -3.08088,-1.83461 -5.50117,-4.27311 -4.42641,-8.18014 1.57113,-5.70899 8.20039,-5.53382 12.75884,-4.27923 2.06923,0.56966 4.54198,1.62053 6.21584,3.0293 2.04037,1.71598 3.36054,4.26261 2.60041,7.01881 -1.10624,4.0239 -4.65055,5.06909 -8.33082,4.96125 v 0 z m -5.76436,4.31799 c -6.7817,-0.41052 -14.39962,2.47071 -14.87514,10.32164 -0.46386,7.65463 6.30022,11.60466 13.00221,12.01154 6.66396,0.40352 14.52393,-2.54271 14.99362,-10.27617 0.47347,-7.80998 -6.29847,-11.64299 -13.12069,-12.05701 z m -1.4573,18.77721 c -2.41913,-0.14748 -5.21001,-0.71306 -7.31888,-2.07579 -2.0663,-1.35907 -3.44594,-3.55348 -3.29073,-6.09021 0.36607,-6.06471 7.01109,-7.33534 11.89014,-7.03921 4.67911,0.28388 10.87017,2.56952 10.52232,8.31902 -0.35442,5.82993 -7.12345,7.1692 -11.80285,6.88619 z m 16.20273,24.85709 -12.40602,-3.2903 -1.08846,-7.46912 11.67927,-1.70272 -0.49446,-3.37963 -26.97251,3.93063 1.47188,10.10306 v 0 c 0.32134,2.20256 0.90716,4.28548 2.5459,5.89202 1.64166,1.60857 4.03791,2.34378 6.31625,2.01094 3.18698,-0.46314 5.78112,-2.77107 6.18815,-6.04112 v 0 l 13.27589,3.48398 z m -15.325,-4.02887 c 0.26363,1.80895 0.36564,3.32002 -0.81536,4.85588 -0.80764,1.08191 -2.04285,1.70286 -3.33869,1.89114 -1.57301,0.23055 -2.95862,-0.17021 -4.01151,-1.3413 -0.99767,-1.05873 -1.20345,-2.1944 -1.40907,-3.60799 v 0 l -0.98033,-6.72312 9.63249,-1.4028 z m 17.52801,12.27633 -26.12158,7.78841 0.97814,3.2763 26.12042,-7.79059 z m 4.97611,14.13642 -22.20289,9.82092 -3.13495,-7.08498 -2.7256,1.20578 7.65216,17.29381 2.72297,-1.20576 -3.13277,-7.08585 22.20289,-9.81961 z m 6.70622,13.36493 -23.34061,14.07493 1.76421,2.9267 23.34236,-14.07493 z m 5.0822,8.55219 -21.07058,17.28479 6.52728,7.95367 v 0 c 1.33546,1.62751 2.45496,2.86855 4.53614,3.52405 2.11091,0.63087 4.24119,0.22107 5.96139,-1.18931 2.39551,-1.9659 3.0172,-4.84145 1.67998,-7.59765 v 0 l 0.0616,-0.0503 v 0 c 2.69456,2.15594 6.22035,2.19383 8.92438,-0.0231 1.78171,-1.46196 2.84305,-3.36215 2.78972,-5.67882 -0.053,-2.63059 -1.31988,-4.36434 -2.90572,-6.30051 v 0 z m 4.15915,9.64006 c 0.95831,1.16658 1.89274,2.55612 1.9114,4.0822 0.0569,1.44652 -0.60566,2.70694 -1.74119,3.64006 -1.25999,1.03162 -2.97276,1.51194 -4.54665,1.15957 -1.62955,-0.35777 -2.71481,-1.67589 -3.69586,-2.87672 v 0 l -3.93225,-4.78942 7.77034,-6.37483 z m -10.68102,6.963 c 1.08437,1.31988 2.30094,2.73842 2.35136,4.4933 0.092,1.36476 -0.66599,2.75621 -1.68043,3.58846 -1.25997,1.03324 -2.55333,1.27238 -4.07855,0.72662 -1.27893,-0.49403 -2.06179,-1.44375 -2.9181,-2.48966 v 0 l -3.9066,-4.75969 6.88096,-5.6424 z m 34.12408,11.37046 -7.1867,4.36521 -7.76612,-6.4439 3.21058,-7.66251 -2.20183,-1.82585 -10.61937,26.60409 3.02711,2.51195 24.22592,-15.31451 z m -20.97484,13.2641 5.10538,-12.74689 6.45425,5.35281 z m 36.80377,-3.56967 -11.16556,24.86043 15.22328,6.83344 1.20548,-2.68012 -12.10772,-5.43386 3.55043,-7.90252 10.0382,4.50847 1.12358,-2.50161 -10.03936,-4.50773 5.28885,-11.77763 z m 12.49681,20.12565 c -1.58044,6.60784 -0.0635,14.60728 7.58906,16.43852 7.45717,1.78419 12.5245,-4.19412 14.08644,-10.72429 1.55247,-6.48967 0.0131,-14.74164 -7.52041,-16.54477 -7.61485,-1.81929 -12.56342,4.18582 -14.15509,10.83054 z m 18.24472,4.69062 c -0.56544,2.35675 -1.60682,5.00759 -3.3142,6.84452 -1.69616,1.80035 -4.09576,2.77849 -6.56894,2.18742 -5.91389,-1.41578 -6.01182,-8.17651 -4.87497,-12.9295 1.09224,-4.56019 4.41679,-10.2584 10.02041,-8.91826 5.67999,1.35778 5.82835,8.25606 4.7377,12.81582 z m 9.52771,1.31158 c -0.14428,6.79 3.03367,14.28813 10.9015,14.45499 7.66454,0.1619 11.34773,-6.7533 11.48895,-13.46446 0.14208,-6.67344 -3.11222,-14.40997 -10.85692,-14.57479 -7.82601,-0.16482 -11.38898,6.75286 -11.53353,13.58426 z m 18.82209,0.71582 c -0.0527,2.42291 -0.50962,5.2339 -1.78782,7.39159 -1.27601,2.1195 -3.4117,3.58395 -5.95557,3.53061 -6.07666,-0.12926 -7.60667,-6.71773 -7.50336,-11.60203 0.10024,-4.68581 2.13932,-10.96111 7.90034,-10.83972 5.8378,0.12402 7.44477,6.83184 7.34641,11.51955 z m 13.49551,-15.22692 4.01268,23.9432 -7.64342,1.27981 0.4936,2.9388 18.65537,-3.12549 -0.49241,-2.93792 -7.64225,1.27849 -4.01152,-23.9416 z m 25.55717,-6.52537 11.88066,24.52787 9.26233,-4.48484 v 0 c 1.8961,-0.91796 3.36346,-1.71613 4.48835,-3.58571 1.10828,-1.90353 1.20868,-4.07068 0.23754,-6.07214 -1.35093,-2.78957 -4.00176,-4.0669 -6.99491,-3.4133 v 0 l -0.0351,-0.0718 v 0 c 2.72837,-2.11354 3.58891,-5.53222 2.06587,-8.67912 -1.00305,-2.07374 -2.60375,-3.55262 -4.87132,-4.04052 -2.57025,-0.56631 -4.55348,0.26144 -6.80735,1.35325 v 0 z m 10.34758,-1.78826 c 1.35879,-0.65885 2.93181,-1.24293 4.41811,-0.90294 1.41941,0.28373 2.49096,1.22151 3.13378,2.54503 0.70883,1.464 0.77529,3.24366 0.064,4.69063 -0.72953,1.50043 -2.26786,2.24599 -3.66294,2.92189 v 0 l -5.57841,2.70081 -4.38167,-9.04723 z m 4.27354,12.01285 c 1.53745,-0.74527 3.20272,-1.59459 4.9203,-1.2361 1.34669,0.23055 2.52565,1.29512 3.09618,2.47334 0.71088,1.46679 0.63991,2.78054 -0.24702,4.13787 -0.77833,1.12782 -1.88749,1.66396 -3.10405,2.25255 v 0 l -5.54081,2.68524 -3.88182,-8.01036 z m 19.02423,-30.51987 2.56733,8.00132 -8.0793,6.04926 -6.7033,-4.90717 -2.28928,1.71568 23.40139,16.52582 3.14733,-2.35762 -9.24805,-27.12246 z m 8.00905,23.48356 -11.20856,-7.93719 6.7103,-5.02684 z m 7.92801,-39.67479 -11.03659,11.71133 19.84046,18.69035 2.34349,-2.48849 -17.64357,-16.61749 8.6931,-9.22561 z m 10.96476,-16.20814 -8.98384,13.34541 22.61472,15.21629 1.90806,-2.83547 -20.10978,-13.52917 7.07711,-10.51197 z M 919.561,300.38484 c -5.30706,-0.35107 -9.79366,1.43632 -11.53528,6.92758 -2.37905,7.49812 3.88094,12.85925 10.28273,14.89132 6.7033,2.12576 14.15012,0.85965 16.54156,-6.67519 1.65651,-5.22486 -0.89318,-9.40865 -5.32776,-11.98428 v 0 l -1.54124,2.88795 v 0 c 3.00612,1.95263 5.32979,4.48207 4.10654,8.34524 -1.79117,5.64209 -8.40894,5.21044 -12.91449,3.78025 -2.04605,-0.64806 -4.47552,-1.79234 -6.09269,-3.26553 -1.97377,-1.79322 -3.19529,-4.38824 -2.32818,-7.11383 1.25983,-3.97684 4.84218,-4.88357 8.5159,-4.63496 v 0 z m -5.47815,-23.16093 -1.9866,15.9636 27.05106,3.36433 0.4194,-3.39115 -24.05118,-2.98951 1.56441,-12.5742 z m 26.18279,-23.60613 -17.21732,1.03556 v 0 c -2.6963,0.16278 -5.1861,0.47012 -7.25693,2.427 -2.07331,1.95554 -2.74293,4.74104 -2.57592,7.51735 0.1619,2.65754 0.8856,5.44012 3.05888,7.14239 2.34057,1.8483 5.0873,1.84043 7.90295,1.67225 v 0 l 17.21644,-1.03482 -0.20694,-3.4117 -17.21323,1.03599 v 0 c -1.62547,0.0993 -3.85078,0.19136 -5.34,-0.71422 -1.69208,-1.01209 -2.30764,-3.28403 -2.41913,-5.14792 -0.10493,-1.74541 0.33169,-3.76291 1.65201,-4.99593 1.46648,-1.4009 3.49024,-1.5223 5.35413,-1.63509 v 0 l 17.21601,-1.03556 z m -28.19824,-4.30371 26.30914,-7.13117 -2.69179,-9.93035 v 0 c -0.55232,-2.0325 -1.06485,-3.6233 -2.69455,-5.07492 -1.66642,-1.44039 -3.7782,-1.93952 -5.92453,-1.35661 -2.99169,0.80925 -4.73915,3.17912 -4.64821,6.23974 v 0 l -0.0776,0.0207 v 0 c -1.57301,-3.07302 -4.77455,-4.54985 -8.14909,-3.63568 -2.22443,0.60318 -3.97319,1.899 -4.87453,4.03848 -1.03221,2.42072 -0.58657,4.52288 0.0706,6.93865 v 0 z m 0.15943,-10.4987 c -0.39537,-1.45585 -0.67867,-3.11018 -0.0706,-4.50773 0.54285,-1.3397 1.66235,-2.22122 3.08088,-2.60537 1.57229,-0.4267 3.33286,-0.16279 4.62417,0.80632 1.34058,0.99315 1.78622,2.64224 2.19281,4.13874 v 0 l 1.62212,5.98077 -9.70361,2.62986 z m 12.59853,-1.97334 c -0.44783,-1.64835 -0.97566,-3.44112 -0.30399,-5.06297 0.47581,-1.28227 1.74075,-2.24147 3.00613,-2.58555 1.57097,-0.42422 2.84903,-0.11443 4.01938,1.01051 0.96285,0.97405 1.28637,2.16205 1.63874,3.46662 v 0 l 1.6131,5.94201 -8.5927,2.32937 z m -206.26645,-91.1265 12.7278,24.10278 8.08264,-4.26728 v 0 c 2.07374,-1.09385 4.01648,-2.43471 4.9455,-4.67663 0.87672,-2.17036 0.5669,-4.88241 -0.50976,-6.92016 -0.98223,-1.86141 -2.77544,-3.38531 -4.79715,-3.98179 -2.4522,-0.72748 -4.65813,-0.0566 -6.83752,1.09386 v 0 l -5.41287,2.8553 -5.17473,-9.8011 z m 14.61194,8.01239 c 1.44128,-0.76013 2.78097,-1.28883 4.47961,-0.79276 1.34305,0.41387 2.44798,1.40367 3.09735,2.63306 0.76218,1.44214 0.99432,3.15811 0.31857,4.6845 -0.59195,1.34712 -1.55698,1.98979 -2.78753,2.63888 v 0 l -5.30546,2.80195 -4.89756,-9.27603 z m 21.41479,-23.60132 -0.0511,8.40486 -9.55903,3.23536 -4.84233,-6.74965 -2.71073,0.91708 17.09343,22.98795 3.72692,-1.2613 -0.34611,-28.65423 z m 0.30123,24.81162 -8.18057,-11.03077 7.94346,-2.68727 z m 26.63251,-29.73409 -3.4063,12.37338 -7.48195,1.0204 -1.59385,-11.69224 -3.38648,0.46109 3.68188,27.00603 10.12083,-1.37731 v 0 c 2.20476,-0.30326 4.29248,-0.86752 5.9168,-2.4914 1.623,-1.62591 2.37977,-4.01487 2.06878,-6.29803 -0.43457,-3.18741 -2.71656,-5.8056 -5.98544,-6.24148 v 0 l 3.61004,-13.24165 z m -4.1727,15.28492 c 1.8107,-0.24585 3.32338,-0.33211 4.85136,0.86375 1.07243,0.81507 1.68304,2.0548 1.85981,3.3531 0.21438,1.57725 -0.19833,2.95528 -1.37933,3.99841 -1.06821,0.98966 -2.20505,1.18392 -3.62359,1.37598 v 0 l -6.73186,0.91869 -1.31478,-9.64618 z m 32.52789,-15.1201 -3.14865,7.79424 -10.0806,-0.52244 -2.00861,-8.05875 -2.85733,-0.14951 7.39931,27.67608 3.92773,0.20286 10.26131,-26.76032 z m -8.87979,23.17331 -3.53031,-13.27268 8.37381,0.435 z m 36.60631,-17.56925 -19.28538,19.62609 5.83956,-23.03371 -2.7731,-0.7027 -6.69923,26.42396 4.15987,1.05218 17.9795,-18.3562 -5.45979,21.53007 2.77426,0.70475 6.70039,-26.42194 z m 18.81685,35.50049 -1.40339,1.09095 5.16745,7.70796 2.33359,-1.74701 z m 8.29569,-24.19983 -5.90018,5.98777 -9.10669,-4.34991 1.23798,-8.21277 -2.58176,-1.23434 -3.78972,28.39453 3.54969,1.69573 19.74545,-20.77416 z m -17.0946,17.98852 1.83329,-13.60888 7.56573,3.61323 z m -156.16975,23.11049 c 2.80851,0 5.08511,2.27661 5.08511,5.08439 0,2.80779 -2.2766,5.08236 -5.08511,5.08236 -2.80911,0 -5.08323,-2.27457 -5.08323,-5.08236 0,-2.80778 2.27412,-5.08439 5.08323,-5.08439 z m 204.01623,0 c 2.80954,0 5.08525,2.27661 5.08525,5.08439 0,2.80779 -2.27571,5.08236 -5.08525,5.08236 -2.80648,0 -5.08468,-2.27457 -5.08468,-5.08236 0,-2.80778 2.2782,-5.08439 5.08468,-5.08439 z"
       style="fill:#ffffff;fill-opacity:1;fill-rule:evenodd;stroke:none;stroke-width:1.45730352"
       id="path32-0"
       inkscape:connector-curvature="0" /><path
       d="m 772.51019,365.68924 c -17.8852,-10.47278 -35.76559,-40.73558 -37.61709,-43.80612 -1.85151,-3.0701 -17.93737,11.92891 -15.89292,15.02058 7.79745,11.79628 23.61328,23.40254 37.08007,28.26833 12.19866,4.40821 20.79398,3.55553 16.42994,0.51721"
       style="fill:#ffffff;fill-opacity:1;fill-rule:evenodd;stroke:none;stroke-width:1.45730352"
       id="path34-8"
       inkscape:connector-curvature="0" /><path
       d="m 781.00174,359.80435 c -10.68291,-14.58556 -18.59213,-45.52427 -19.52437,-49.00198 -0.93194,-3.47829 -22.26992,4.5803 -20.90501,8.40107 1.36519,3.8206 6.26947,13.13379 14.06822,23.57363 4.67343,6.25503 14.11676,17.03559 21.5305,20.66573 3.83605,1.87803 8.492,1.35996 4.83066,-3.63845"
       style="fill:#ffffff;fill-opacity:1;fill-rule:evenodd;stroke:none;stroke-width:1.45730352"
       id="path36-6"
       inkscape:connector-curvature="0" /><path
       d="m 792.69529,307.12996 c 0,-4.03963 -26.31788,-1.55085 -25.68541,2.92962 0.63247,4.48034 7.60509,36.2159 18.94742,50.1996 0.67955,0.84013 1.10668,1.37307 2.03076,2.05509 1.67255,1.23346 4.21029,0.0827 4.14297,-2.11295 0.53526,-18.43765 0.56426,-49.03171 0.56426,-53.07136"
       style="fill:#ffffff;fill-opacity:1;fill-rule:evenodd;stroke:none;stroke-width:1.45730352"
       id="path38-3"
       inkscape:connector-curvature="0" /><path
       d="m 772.51019,178.11648 c -17.8852,10.47233 -35.76559,40.73528 -37.61709,43.80583 -1.85151,3.07054 -17.93737,-11.92862 -15.89292,-15.02058 7.79745,-11.79585 23.61328,-23.40255 37.08007,-28.26804 12.19866,-4.40806 20.79398,-3.55539 16.42994,-0.51721"
       style="fill:#ffffff;fill-opacity:1;fill-rule:evenodd;stroke:none;stroke-width:1.45730352"
       id="path40-2"
       inkscape:connector-curvature="0" /><path
       d="m 781.00174,184.00152 c -10.68291,14.58541 -18.59213,45.52412 -19.52437,49.00198 -0.93194,3.47828 -22.26992,-4.58045 -20.90501,-8.40107 1.36519,-3.82075 6.26947,-13.13439 14.06822,-23.57364 4.67343,-6.25503 14.11676,-17.03559 21.5305,-20.66631 3.83605,-1.87744 8.492,-1.35981 4.83066,3.63904"
       style="fill:#ffffff;fill-opacity:1;fill-rule:evenodd;stroke:none;stroke-width:1.45730352"
       id="path42-8"
       inkscape:connector-curvature="0" /><path
       d="m 792.69529,236.6759 c 0,4.0392 -26.31788,1.55071 -25.68541,-2.92962 0.63247,-4.48092 7.60509,-36.21603 18.94742,-50.19958 0.67955,-0.84029 1.10464,-1.37148 2.03076,-2.05525 1.67473,-1.23593 4.26392,-0.35106 4.14297,1.08862 0.53526,18.43721 0.56426,50.05618 0.56426,54.09583"
       style="fill:#ffffff;fill-opacity:1;fill-rule:evenodd;stroke:none;stroke-width:1.45730352"
       id="path44-4"
       inkscape:connector-curvature="0" /><path
       d="m 817.34325,178.11648 c 17.88535,10.47233 35.76573,40.73528 37.61723,43.80583 1.85151,3.07054 17.93736,-11.92862 15.89291,-15.02058 -7.79744,-11.79585 -23.61327,-23.40255 -37.08006,-28.26804 -12.19865,-4.40806 -20.79354,-3.55539 -16.43008,-0.51721"
       style="fill:#ffffff;fill-opacity:1;fill-rule:evenodd;stroke:none;stroke-width:1.45730352"
       id="path46-0"
       inkscape:connector-curvature="0" /><path
       d="m 808.8517,184.00152 c 10.68305,14.58541 18.59212,45.52412 19.52451,49.00198 0.93237,3.47828 22.26993,-4.58045 20.90502,-8.40107 -1.36477,-3.82075 -6.26903,-13.13439 -14.06823,-23.57364 -4.67343,-6.25503 -14.11632,-17.03559 -21.53049,-20.66631 -3.83563,-1.87744 -8.49201,-1.35981 -4.83081,3.63904"
       style="fill:#ffffff;fill-opacity:1;fill-rule:evenodd;stroke:none;stroke-width:1.45730352"
       id="path48-5"
       inkscape:connector-curvature="0" /><path
       d="m 797.15828,236.6759 c 0,4.0392 26.31789,1.55071 25.68542,-2.92962 -0.63248,-4.48092 -7.60509,-36.21603 -18.94742,-50.19958 -0.67911,-0.84029 -1.10464,-1.37148 -2.03076,-2.05525 -1.67429,-1.23593 -4.26392,-0.35106 -4.14296,1.08862 -0.53528,18.43721 -0.56428,50.05618 -0.56428,54.09583"
       style="fill:#ffffff;fill-opacity:1;fill-rule:evenodd;stroke:none;stroke-width:1.45730352"
       id="path50-1"
       inkscape:connector-curvature="0" /><path
       d="m 816.87823,365.68924 c 17.8849,-10.47278 35.76558,-40.73558 37.61708,-43.80612 1.85151,-3.0701 17.93693,11.92891 15.89291,15.02058 -7.79744,11.79628 -23.61327,23.40254 -37.08006,28.26833 -12.19909,4.40821 -20.79397,3.55553 -16.42993,0.51721"
       style="fill:#ffffff;fill-opacity:1;fill-rule:evenodd;stroke:none;stroke-width:1.45730352"
       id="path52-3"
       inkscape:connector-curvature="0" /><path
       d="m 808.38667,359.80435 c 10.68261,-14.58556 18.59213,-45.52427 19.52407,-49.00198 0.93224,-3.47829 22.26978,4.5803 20.90502,8.40107 -1.36491,3.8206 -6.26917,13.13379 -14.06793,23.57363 -4.67343,6.25503 -14.11675,17.03559 -21.53049,20.66573 -3.83606,1.87803 -8.49201,1.35996 -4.83067,-3.63845"
       style="fill:#ffffff;fill-opacity:1;fill-rule:evenodd;stroke:none;stroke-width:1.45730352"
       id="path54-3"
       inkscape:connector-curvature="0" /><path
       d="m 796.69282,307.12996 c 0,-4.03963 26.31774,-1.55085 25.68527,2.92962 -0.63247,4.48034 -7.60465,36.2159 -18.94743,50.1996 -0.67909,0.84013 -1.10667,1.37307 -2.03075,2.05509 -1.67211,1.23346 -4.21015,0.0827 -4.14282,-2.11295 -0.53541,-18.43765 -0.56427,-49.03171 -0.56427,-53.07136"
       style="fill:#ffffff;fill-opacity:1;fill-rule:evenodd;stroke:none;stroke-width:1.45730352"
       id="path56-2"
       inkscape:connector-curvature="0" /><path
       d="m 794.78594,524.31075 8.79468,-24.88433 26.38434,-0.67503 -20.94875,-16.05365 7.51168,-25.302 -21.74195,14.96301 -21.74195,-14.96301 7.51167,25.302 -20.94917,16.05365 26.38463,0.67503 z"
       style="fill:#f2d100;fill-opacity:1;fill-rule:evenodd;stroke:none;stroke-width:1.45730352"
       id="path58-2"
       inkscape:connector-curvature="0" /></g></svg>